REM DIRINDEX 1\2,1\3,1\4,1\5\6,1\5\7,1\8
REM DIRNAME cjc115,folder01,folder02,folder03,folder04,folder05,folder06,folder07
TITLE ""
FILE "124 Åy124ÅzUnit7 (1405 deteriorate_1416 aristocrat).mp3" MP3
  TRACK 01 AUDIO
    TITLE "0:"
    INDEX 01 00:00:00
  TRACK 02 AUDIO
    TITLE "2:cjc115_4830"
    INDEX 01 00:00:07
  TRACK 03 AUDIO
    TITLE "0:"
    INDEX 01 00:01:40
  TRACK 04 AUDIO
    TITLE "3:cjc115_4831"
    INDEX 01 00:01:58
  TRACK 05 AUDIO
    TITLE "0:"
    INDEX 01 00:02:73
  TRACK 06 AUDIO
    TITLE "4:cjc115_4832"
    INDEX 01 00:03:12
  TRACK 07 AUDIO
    TITLE "0:"
    INDEX 01 00:08:44
  TRACK 08 AUDIO
    TITLE "2:cjc115_4833"
    INDEX 01 00:09:59
  TRACK 09 AUDIO
    TITLE "0:"
    INDEX 01 00:11:11
  TRACK 10 AUDIO
    TITLE "3:cjc115_4834"
    INDEX 01 00:11:27
  TRACK 11 AUDIO
    TITLE "0:"
    INDEX 01 00:13:37
  TRACK 12 AUDIO
    TITLE "4:cjc115_4835"
    INDEX 01 00:13:53
  TRACK 13 AUDIO
    TITLE "0:"
    INDEX 01 00:17:43
  TRACK 14 AUDIO
    TITLE "2:cjc115_4836"
    INDEX 01 00:18:56
  TRACK 15 AUDIO
    TITLE "0:"
    INDEX 01 00:19:71
  TRACK 16 AUDIO
    TITLE "3:cjc115_4837"
    INDEX 01 00:20:14
  TRACK 17 AUDIO
    TITLE "0:"
    INDEX 01 00:21:49
  TRACK 18 AUDIO
    TITLE "4:cjc115_4838"
    INDEX 01 00:21:62
  TRACK 19 AUDIO
    TITLE "0:"
    INDEX 01 00:25:41
  TRACK 20 AUDIO
    TITLE "2:cjc115_4839"
    INDEX 01 00:26:58
  TRACK 21 AUDIO
    TITLE "0:"
    INDEX 01 00:28:08
  TRACK 22 AUDIO
    TITLE "3:cjc115_4840"
    INDEX 01 00:28:21
  TRACK 23 AUDIO
    TITLE "0:"
    INDEX 01 00:30:22
  TRACK 24 AUDIO
    TITLE "4:cjc115_4841"
    INDEX 01 00:30:36
  TRACK 25 AUDIO
    TITLE "0:"
    INDEX 01 00:35:17
  TRACK 26 AUDIO
    TITLE "2:cjc115_4842"
    INDEX 01 00:36:33
  TRACK 27 AUDIO
    TITLE "0:"
    INDEX 01 00:37:46
  TRACK 28 AUDIO
    TITLE "3:cjc115_4843"
    INDEX 01 00:37:61
  TRACK 29 AUDIO
    TITLE "0:"
    INDEX 01 00:39:13
  TRACK 30 AUDIO
    TITLE "4:cjc115_4844"
    INDEX 01 00:39:29
  TRACK 31 AUDIO
    TITLE "0:"
    INDEX 01 00:43:23
  TRACK 32 AUDIO
    TITLE "2:cjc115_4845"
    INDEX 01 00:44:38
  TRACK 33 AUDIO
    TITLE "0:"
    INDEX 01 00:45:49
  TRACK 34 AUDIO
    TITLE "3:cjc115_4846"
    INDEX 01 00:45:65
  TRACK 35 AUDIO
    TITLE "0:"
    INDEX 01 00:48:10
  TRACK 36 AUDIO
    TITLE "4:cjc115_4847"
    INDEX 01 00:48:26
  TRACK 37 AUDIO
    TITLE "0:"
    INDEX 01 00:51:28
  TRACK 38 AUDIO
    TITLE "2:cjc115_4848"
    INDEX 01 00:52:43
  TRACK 39 AUDIO
    TITLE "0:"
    INDEX 01 00:53:70
  TRACK 40 AUDIO
    TITLE "3:cjc115_4849"
    INDEX 01 00:54:09
  TRACK 41 AUDIO
    TITLE "0:"
    INDEX 01 00:56:37
  TRACK 42 AUDIO
    TITLE "4:cjc115_4850"
    INDEX 01 00:56:47
  TRACK 43 AUDIO
    TITLE "0:"
    INDEX 01 01:00:25
  TRACK 44 AUDIO
    TITLE "2:cjc115_4851"
    INDEX 01 01:01:44
  TRACK 45 AUDIO
    TITLE "0:"
    INDEX 01 01:02:34
  TRACK 46 AUDIO
    TITLE "3:cjc115_4852"
    INDEX 01 01:02:54
  TRACK 47 AUDIO
    TITLE "0:"
    INDEX 01 01:05:34
  TRACK 48 AUDIO
    TITLE "4:cjc115_4853"
    INDEX 01 01:05:46
  TRACK 49 AUDIO
    TITLE "0:"
    INDEX 01 01:10:22
  TRACK 50 AUDIO
    TITLE "2:cjc115_4854"
    INDEX 01 01:11:37
  TRACK 51 AUDIO
    TITLE "0:"
    INDEX 01 01:12:38
  TRACK 52 AUDIO
    TITLE "3:cjc115_4855"
    INDEX 01 01:12:54
  TRACK 53 AUDIO
    TITLE "0:"
    INDEX 01 01:15:05
  TRACK 54 AUDIO
    TITLE "4:cjc115_4856"
    INDEX 01 01:15:19
  TRACK 55 AUDIO
    TITLE "0:"
    INDEX 01 01:18:31
  TRACK 56 AUDIO
    TITLE "2:cjc115_4857"
    INDEX 01 01:19:50
  TRACK 57 AUDIO
    TITLE "0:"
    INDEX 01 01:20:59
  TRACK 58 AUDIO
    TITLE "3:cjc115_4858"
    INDEX 01 01:20:71
  TRACK 59 AUDIO
    TITLE "0:"
    INDEX 01 01:22:17
  TRACK 60 AUDIO
    TITLE "4:cjc115_4859"
    INDEX 01 01:22:31
  TRACK 61 AUDIO
    TITLE "0:"
    INDEX 01 01:25:31
  TRACK 62 AUDIO
    TITLE "2:cjc115_4860"
    INDEX 01 01:26:44
  TRACK 63 AUDIO
    TITLE "0:"
    INDEX 01 01:27:55
  TRACK 64 AUDIO
    TITLE "3:cjc115_4861"
    INDEX 01 01:27:69
  TRACK 65 AUDIO
    TITLE "0:"
    INDEX 01 01:32:35
  TRACK 66 AUDIO
    TITLE "4:cjc115_4862"
    INDEX 01 01:32:49
  TRACK 67 AUDIO
    TITLE "0:"
    INDEX 01 01:35:49
  TRACK 68 AUDIO
    TITLE "2:cjc115_4863"
    INDEX 01 01:36:64
  TRACK 69 AUDIO
    TITLE "0:"
    INDEX 01 01:38:16
  TRACK 70 AUDIO
    TITLE "3:cjc115_4864"
    INDEX 01 01:38:28
  TRACK 71 AUDIO
    TITLE "0:"
    INDEX 01 01:39:19
  TRACK 72 AUDIO
    TITLE "4:cjc115_4865"
    INDEX 01 01:39:31
  TRACK 73 AUDIO
    TITLE "0:"
    INDEX 01 01:43:07
